<svg width="26" height="36" viewBox="0 0 26 36" fill="none" xmlns="http://www.w3.org/2000/svg">
<path d="M12.9506 9.89699C13.6144 9.90702 14.2735 9.78644 14.8897 9.54227C15.5058 9.2981 16.0667 8.93521 16.5397 8.47474C17.0126 8.01426 17.3882 7.46538 17.6446 6.86005C17.901 6.25473 18.033 5.60503 18.033 4.94879C18.033 4.29254 17.901 3.64285 17.6446 3.03752C17.3882 2.43219 17.0126 1.88331 16.5397 1.42284C16.0667 0.962358 15.5058 0.599474 14.8897 0.355304C14.2735 0.111133 13.6144 -0.00944841 12.9506 0.000577633C10.1859 0.000577633 7.94354 2.21621 7.94354 4.94821C7.94385 6.26081 8.47152 7.51955 9.41049 8.4476C10.3495 9.37564 11.6229 9.89699 12.9506 9.89699Z" fill="#FF5656"/>
<path d="M19.5557 11.4028H13.6623V16.0235L14.746 16.2857V15.2143C14.746 14.5183 15.3876 13.8864 16.5584 14.6644C18.2078 15.7636 19.9833 22.0067 18.0576 21.7607C17.1281 21.6434 16.6028 21.1975 15.5792 21.1409C14.7478 21.0988 14.7478 20.7453 14.7466 20.2803C14.7455 19.8154 14.7466 18.3229 14.7466 18.3229V17.4911C14.3851 17.4051 14.0238 17.3179 13.6628 17.2295V22.9436C13.6628 22.9436 15.2877 21.8514 16.4497 22.7414C17.1824 23.3046 17.641 24.9253 15.3747 26.2462C14.8518 26.561 12.0047 27.3055 11.1114 25.6479H10.1035C9.88475 25.6479 9.67492 25.7338 9.52021 25.8867C9.36549 26.0397 9.27858 26.2471 9.27858 26.4634C9.27858 26.6797 9.36549 26.8871 9.52021 27.0401C9.67492 27.193 9.88475 27.279 10.1035 27.279H16.0717C16.5254 27.2796 16.9604 27.4581 17.2811 27.7754C17.6018 28.0927 17.7821 28.5228 17.7824 28.9713C17.7821 29.4197 17.6018 29.8497 17.281 30.1668C16.9603 30.4839 16.5253 30.6622 16.0717 30.6625H9.89614C9.79935 30.6699 9.70898 30.7132 9.64306 30.7837C9.57714 30.8541 9.54052 30.9466 9.54052 31.0425C9.54052 31.1385 9.57714 31.2309 9.64306 31.3014C9.70898 31.3718 9.79935 31.4151 9.89614 31.4226H16.0717C17.0147 31.4226 17.7824 32.1815 17.7824 33.1149C17.7824 34.0483 17.0147 34.8061 16.0717 34.8061H8.84915C8.67312 34.8061 8.5043 34.737 8.37983 34.6139C8.25536 34.4909 8.18543 34.324 8.18543 34.15C8.18543 33.9759 8.25536 33.8091 8.37983 33.686C8.5043 33.563 8.67312 33.4938 8.84915 33.4938H16.0717C16.171 33.49 16.265 33.4483 16.3338 33.3775C16.4027 33.3067 16.4412 33.2123 16.4412 33.1141C16.4412 33.0158 16.4027 32.9214 16.3338 32.8506C16.265 32.7798 16.171 32.7381 16.0717 32.7343H9.89614C9.44267 32.7335 9.00799 32.5551 8.68734 32.2381C8.36669 31.9211 8.18621 31.4914 8.18543 31.0431C8.18574 30.5945 8.366 30.1642 8.68669 29.8468C9.00737 29.5293 9.44231 29.3505 9.89614 29.3496H16.0717C16.1699 29.3443 16.2622 29.302 16.3298 29.2314C16.3973 29.1608 16.435 29.0673 16.435 28.9701C16.435 28.873 16.3973 28.7795 16.3298 28.7089C16.2622 28.6383 16.1699 28.596 16.0717 28.5907H10.1035C9.5333 28.5898 8.98669 28.3653 8.58363 27.9665C8.18056 27.5677 7.95395 27.0272 7.95348 26.4634C7.95395 25.8996 8.18055 25.359 8.58359 24.9601C8.98664 24.5612 9.53324 24.3366 10.1035 24.3356H11.4357C11.4444 24.3356 11.4514 24.3402 11.4602 24.3402H11.9136C12.3541 24.3402 12.3372 23.8793 12.336 23.8793V17.2982L11.2534 17.5951V18.3223C11.2534 18.3223 11.2545 19.8148 11.2534 20.2797C11.2534 20.7447 11.2499 21.0982 10.4208 21.1409C9.39835 21.1975 8.8731 21.6434 7.94121 21.7607C6.01609 22.0062 7.79281 15.7636 9.43866 14.6638C10.6089 13.8852 11.2534 14.5171 11.2534 15.2137V16.3781L12.336 16.0824V11.401H6.70201C3.15966 11.401 0 14.2387 0 17.7401V33.0849C0 34.2822 0.952922 35.2532 2.16116 35.2532C2.44908 35.2532 2.73418 35.1971 3.00015 35.0881C3.26612 34.9791 3.50776 34.8193 3.71124 34.618C3.91472 34.4166 4.07605 34.1775 4.18602 33.9145C4.29599 33.6514 4.35243 33.3695 4.35213 33.0849V19.2493H6.16683V36H19.8116V19.2493H21.6455V33.0849C21.6455 34.2822 22.6265 35.2532 23.8371 35.2532C25.0477 35.2532 26 34.2822 26 33.0849V17.7401C25.9994 14.2405 23.0974 11.4028 19.5562 11.4028H19.5557Z" fill="#FF5656"/>
</svg>
