<svg width="9" height="11" viewBox="0 0 9 11" fill="none" xmlns="http://www.w3.org/2000/svg">
<path d="M0.500001 6.22275e-05C0.382975 2.32135e-05 0.269643 0.0410339 0.179742 0.115952C0.0898403 0.19087 0.0290653 0.294948 0.00800075 0.410062L8.48188e-07 0.500062V9.50006C-0.000229165 9.62501 0.0463299 9.74551 0.130509 9.83784C0.214689 9.93018 0.330387 9.98765 0.454822 9.99894C0.579257 10.0102 0.70341 9.97452 0.802832 9.89884C0.902255 9.82317 0.969741 9.71301 0.992001 9.59006L1 9.50006V0.500062C1 0.367454 0.947322 0.240277 0.853554 0.146509C0.759786 0.0527407 0.632609 6.22275e-05 0.500001 6.22275e-05ZM8.354 0.146062C8.27115 0.0633869 8.16191 0.0124001 8.04533 0.00198436C7.92874 -0.00843143 7.8122 0.0223843 7.716 0.0890625L7.646 0.146062L3.146 4.64606C3.06333 4.72892 3.01234 4.83815 3.00192 4.95474C2.99151 5.07132 3.02232 5.18786 3.089 5.28406L3.146 5.35406L7.646 9.85406C7.73419 9.94265 7.85236 9.99499 7.97722 10.0008C8.10209 10.0065 8.22459 9.96534 8.32058 9.88529C8.41658 9.80523 8.47911 9.69212 8.49584 9.56824C8.51258 9.44437 8.48231 9.31872 8.411 9.21606L8.354 9.14606L4.207 5.00006L8.354 0.854062C8.40056 0.807617 8.43751 0.752441 8.46271 0.691696C8.48792 0.630951 8.50089 0.56583 8.50089 0.500062C8.50089 0.434295 8.48792 0.369174 8.46271 0.308429C8.43751 0.247683 8.40056 0.192508 8.354 0.146062V0.146062Z" fill="#AEAEAE"/>
</svg>
