<svg width="16" height="12" viewBox="0 0 16 12" fill="none" xmlns="http://www.w3.org/2000/svg">
<path d="M15.6867 0.31331C15.786 0.412374 15.8648 0.530058 15.9186 0.659621C15.9723 0.789184 16 0.928081 16 1.06836C16 1.20863 15.9723 1.34753 15.9186 1.47709C15.8648 1.60666 15.786 1.72434 15.6867 1.8234L6.08864 11.4215C5.98958 11.5208 5.8719 11.5996 5.74233 11.6533C5.61277 11.7071 5.47387 11.7348 5.3336 11.7348C5.19332 11.7348 5.05442 11.7071 4.92486 11.6533C4.7953 11.5996 4.67761 11.5208 4.57855 11.4215L0.31275 7.15565C0.112499 6.9554 0 6.6838 0 6.40061C0 6.11741 0.112499 5.84581 0.31275 5.64556C0.513001 5.44531 0.7846 5.33281 1.0678 5.33281C1.35099 5.33281 1.62259 5.44531 1.82284 5.64556L5.3336 9.15845L14.1766 0.31331C14.2757 0.213995 14.3933 0.1352 14.5229 0.0814369C14.6525 0.0276741 14.7914 0 14.9316 0C15.0719 0 15.2108 0.0276741 15.3404 0.0814369C15.4699 0.1352 15.5876 0.213995 15.6867 0.31331V0.31331Z" fill="#7FD998"/>
</svg>
